<svg width="28" height="25" viewBox="0 0 28 25" fill="none" xmlns="http://www.w3.org/2000/svg">
<path d="M17.0205 23.0836H10.9677V15.2155C10.9677 14.6679 11.3313 14.3108 11.871 14.3108H16.129C16.6686 14.3108 17.0205 14.6679 17.0205 15.2155V23.0836ZM3.65982 22.3694C3.65982 24.024 4.64515 25 6.29911 25H21.7243C23.3783 25 24.3518 24.024 24.3518 22.3694V12.9419L14.7096 4.7405C14.2639 4.3596 13.7361 4.3715 13.3021 4.7405L3.65982 12.9419V22.3694ZM0 11.7515C0 12.2396 0.375366 12.7038 1.00879 12.7038C1.33724 12.7038 1.60704 12.5253 1.85337 12.3229L13.5953 2.32413C13.8533 2.08606 14.17 2.08606 14.4282 2.32413L26.17 12.3229C26.4046 12.5253 26.6744 12.7038 27.0029 12.7038C27.5542 12.7038 28 12.3587 28 11.7873C28 11.4302 27.8827 11.1922 27.6363 10.9778L15.4252 0.562433C14.5572 -0.187478 13.4779 -0.187478 12.5982 0.562433L0.375366 10.9778C0.117302 11.1922 0 11.4778 0 11.7515ZM21.4076 6.38317L24.3518 8.90667V3.40733C24.3518 2.88359 24.0234 2.55029 23.5073 2.55029H22.2522C21.7478 2.55029 21.4076 2.88359 21.4076 3.40733V6.38317Z" fill="white"/>
</svg>
