<svg width="28" height="25" viewBox="0 0 28 25" fill="none" xmlns="http://www.w3.org/2000/svg">
<path d="M10.6159 23.774H17.3842V15.1083C17.3842 14.5608 17.0322 14.2037 16.4927 14.2037H11.519C10.9677 14.2037 10.6159 14.5608 10.6159 15.1083V23.774ZM6.02932 25H21.9003C23.566 25 24.5395 24.0358 24.5395 22.3694V9.21616L22.651 7.9068V21.8813C22.651 22.655 22.2405 23.0836 21.5015 23.0836H6.42815C5.67742 23.0836 5.26686 22.655 5.26686 21.8813V7.9187L3.37829 9.21616V22.3694C3.37829 24.0358 4.3519 25 6.02932 25ZM0 11.7515C0 12.2396 0.375366 12.7038 1.00879 12.7038C1.33724 12.7038 1.60704 12.5253 1.85337 12.3229L13.5953 2.32413C13.8533 2.08606 14.17 2.08606 14.4282 2.32413L26.17 12.3229C26.4046 12.5253 26.6744 12.7038 27.0029 12.7038C27.5542 12.7038 28 12.3587 28 11.7873C28 11.4302 27.8827 11.1922 27.6363 10.9778L15.4252 0.562433C14.5572 -0.187478 13.4779 -0.187478 12.5982 0.562433L0.375366 10.9778C0.117302 11.1922 0 11.4778 0 11.7515ZM21.5953 6.38317L24.5395 8.90667V3.40733C24.5395 2.88359 24.2111 2.55029 23.695 2.55029H22.4399C21.9355 2.55029 21.5953 2.88359 21.5953 3.40733V6.38317Z" fill="white"/>
</svg>
